<svg xmlns="http://www.w3.org/2000/svg" viewBox="0 0 72 72"><defs><style>.cls-2{fill-rule:evenodd;fill:#fff}</style></defs><g id="Layer_1" data-name="Layer 1"><path d="M16.167 1h39.666A15.167 15.167 0 0171 16.167v39.666A15.167 15.167 0 0155.833 71H16.167A15.167 15.167 0 011 55.833V16.167A15.167 15.167 0 0116.167 1" fill-rule="evenodd" fill="#5405bd"/><path class="cls-2" d="M48.441 32.132H42.25v11.935c0 2.958 2.137 3.013 6.192 2.794v6.41c-9.7 1.096-13.261-1.699-13.261-9.204V15.766h7.069v9.573h6.192zM28.89 28.48a3.555 3.555 0 11-3.554-3.554 3.555 3.555 0 013.555 3.554M28.89 38.598a3.555 3.555 0 11-3.554-3.555 3.555 3.555 0 013.555 3.555M28.89 48.441a3.555 3.555 0 11-3.554-3.554 3.555 3.555 0 013.555 3.554"/></g></svg>